<svg width="181" height="173" viewBox="0 0 181 173" fill="none" xmlns="http://www.w3.org/2000/svg">
<path d="M14.9287 78.9355L15.5671 76.2092L11.5361 75.2653L12.863 69.5986L16.894 70.5425L17.5324 67.8162L4.29054 64.7155L3.65216 67.4418L10.4289 69.0286L9.10195 74.6953L2.32525 73.1085L1.68688 75.8348L14.9287 78.9355Z" fill="#F8F8F8" fill-opacity="0.85"/>
<path d="M22.5654 56.719C24.3024 53.2048 23.0313 49.0962 19.4275 47.3149C15.8237 45.5336 11.7877 47.019 10.0507 50.5332C8.31369 54.0473 9.58473 58.1559 13.1885 59.9372C16.7923 61.7185 20.8284 60.2331 22.5654 56.719ZM20.3242 55.6112C19.2253 57.8344 16.7417 58.4809 14.4647 57.3554C12.1877 56.2299 11.1929 53.8642 12.2918 51.6409C13.3908 49.4177 15.8743 48.7713 18.1514 49.8968C20.4284 51.0223 21.4231 53.388 20.3242 55.6112Z" fill="#F8F8F8" fill-opacity="0.85"/>
<path d="M28.2232 46.8705L33.7968 39.855L31.8706 38.3248L28.0388 43.1479L19.3164 36.2183L17.5747 38.4106L28.2232 46.8705Z" fill="#F8F8F8" fill-opacity="0.85"/>
<path d="M37.6535 35.9318L40.8551 33.2443C44.0719 30.544 44.5517 26.5117 41.9671 23.4327C39.3825 20.3537 35.3127 20.1403 32.1111 22.8278L28.9096 25.5153L37.6535 35.9318ZM38.2165 32.2474L32.6358 25.5992L33.5855 24.802C35.8986 22.8603 38.1129 23.3517 39.7459 25.2972C41.379 27.2426 41.4793 29.5085 39.1662 31.4502L38.2165 32.2474Z" fill="#F8F8F8" fill-opacity="0.85"/>
<path d="M60.1334 21.2425L62.716 20.1608L58.4123 9.88571L61.9911 8.38675L61.0407 6.11774L51.3006 10.1974L52.251 12.4664L55.8297 10.9674L60.1334 21.2425Z" fill="#F8F8F8" fill-opacity="0.85"/>
<path d="M77.2634 16.3195C81.1169 15.6009 83.6415 12.1191 82.9045 8.16727C82.1676 4.21539 78.5579 1.87749 74.7043 2.59609C70.8507 3.31468 68.3262 6.79647 69.0631 10.7483C69.8001 14.7002 73.4098 17.0381 77.2634 16.3195ZM76.8051 13.8619C74.3671 14.3165 72.3599 12.7174 71.8943 10.2204C71.4287 7.72344 72.7246 5.50834 75.1626 5.05372C77.6006 4.5991 79.6077 6.19826 80.0733 8.69522C80.539 11.1922 79.2431 13.4073 76.8051 13.8619Z" fill="#F8F8F8" fill-opacity="0.85"/>
<path d="M96.203 15.1447L105.407 16.3339L105.722 13.8941L99.2952 13.0638L99.5463 11.12L104.961 11.8196L105.269 9.43937L99.8538 8.73974L100.407 4.45535L106.556 5.24981L106.872 2.81009L97.9457 1.65684L96.203 15.1447Z" fill="#F8F8F8" fill-opacity="0.85"/>
<path d="M109.607 17.2831L112.389 18.2347L115.548 15.4893C116.178 14.944 116.964 13.9445 116.964 13.9445C116.964 13.9445 117.061 15.2671 117.232 16.0654L118.085 20.1832L121.113 21.219L119.251 12.6975L124.682 8.06622L121.863 7.10168L119.856 8.88846C119.251 9.42131 118.516 10.3959 118.516 10.3959C118.516 10.3959 118.425 9.11756 118.267 8.34469L117.718 5.68399L114.71 4.65471L116.23 11.6429L109.607 17.2831Z" fill="#F8F8F8" fill-opacity="0.85"/>
<path d="M125.508 23.4941L127.915 24.9248L129.499 22.26L130.324 22.7506C133.573 24.682 136.552 24.1724 138.228 21.353C139.904 18.5335 138.955 15.6665 135.689 13.7248L132.457 11.8035L125.508 23.4941ZM130.756 20.1454L133.607 15.3489L134.363 15.7985C136.289 16.9431 136.713 18.2653 135.752 19.8814C134.802 21.4802 133.472 21.7601 131.512 20.5951L130.756 20.1454Z" fill="#F8F8F8" fill-opacity="0.85"/>
<path d="M138.323 31.9193L144.989 37.9068L146.633 36.0767L142.05 31.9603L149.494 23.6728L147.411 21.8017L138.323 31.9193Z" fill="#F8F8F8" fill-opacity="0.85"/>
<path d="M152.411 47.3648C154.709 50.54 158.937 51.3313 162.193 48.9738C165.449 46.6162 166.017 42.3532 163.718 39.178C161.419 36.0029 157.192 35.2116 153.936 37.5691C150.68 39.9266 150.112 44.1897 152.411 47.3648ZM154.436 45.8987C152.981 43.8899 153.567 41.3914 155.625 39.9019C157.682 38.4123 160.239 38.6354 161.693 40.6442C163.147 42.6529 162.561 45.1514 160.504 46.641C158.447 48.1306 155.89 47.9075 154.436 45.8987Z" fill="#F8F8F8" fill-opacity="0.85"/>
<path d="M165.26 61.876C166.625 63.1155 168.229 63.4454 170.174 62.6027C173.22 61.2831 173.984 58.4675 172.474 54.9806L170.979 51.5304L158.5 56.9363L159.613 59.5056L162.714 58.1621L163.096 59.043C163.199 59.2816 163.329 59.5305 163.469 59.7532L161.203 63.176L162.49 66.1491L165.26 61.876ZM164.953 57.1922L169.835 55.0775L170.184 55.885C171.075 57.9404 170.791 59.1968 169.029 59.96C167.267 60.7232 166.209 60.0918 165.303 57.9997L164.953 57.1922Z" fill="#F8F8F8" fill-opacity="0.85"/>
<path d="M163.952 71.2712L165.916 80.341L168.321 79.8203L166.949 73.4871L168.865 73.0723L170.02 78.4086L172.366 77.9007L171.21 72.5644L175.433 71.6501L176.745 77.7096L179.149 77.189L177.244 68.3929L163.952 71.2712Z" fill="#F8F8F8" fill-opacity="0.85"/>
<path d="M165.637 94.0645L164.998 96.7908L169.029 97.7347L167.702 103.401L163.671 102.458L163.033 105.184L176.275 108.284L176.913 105.558L170.137 103.971L171.463 98.3047L178.24 99.8915L178.879 97.1652L165.637 94.0645Z" fill="#F8F8F8" fill-opacity="0.85"/>
<path d="M158 116.281C156.263 119.795 157.534 123.904 161.138 125.685C164.742 127.466 168.778 125.981 170.515 122.467C172.252 118.953 170.981 114.844 167.377 113.063C163.773 111.282 159.737 112.767 158 116.281ZM160.241 117.389C161.34 115.166 163.824 114.519 166.101 115.645C168.378 116.77 169.372 119.136 168.274 121.359C167.175 123.582 164.691 124.229 162.414 123.103C160.137 121.978 159.142 119.612 160.241 117.389Z" fill="#F8F8F8" fill-opacity="0.85"/>
<path d="M152.342 126.13L146.769 133.145L148.695 134.675L152.527 129.852L161.249 136.782L162.991 134.589L152.342 126.13Z" fill="#F8F8F8" fill-opacity="0.85"/>
<path d="M142.912 137.068L139.711 139.756C136.494 142.456 136.014 146.488 138.599 149.567C141.183 152.646 145.253 152.86 148.455 150.172L151.656 147.485L142.912 137.068ZM142.349 140.753L147.93 147.401L146.98 148.198C144.667 150.14 142.453 149.648 140.82 147.703C139.187 145.757 139.087 143.491 141.4 141.55L142.349 140.753Z" fill="#F8F8F8" fill-opacity="0.85"/>
<path d="M120.432 151.757L117.85 152.839L122.154 163.114L118.575 164.613L119.525 166.882L129.265 162.803L128.315 160.534L124.736 162.033L120.432 151.757Z" fill="#F8F8F8" fill-opacity="0.85"/>
<path d="M103.303 156.68C99.449 157.399 96.9245 160.881 97.6614 164.833C98.3983 168.785 102.008 171.123 105.862 170.404C109.715 169.685 112.24 166.204 111.503 162.252C110.766 158.3 107.156 155.962 103.303 156.68ZM103.761 159.138C106.199 158.683 108.206 160.283 108.672 162.78C109.137 165.277 107.841 167.492 105.403 167.946C102.965 168.401 100.958 166.802 100.493 164.305C100.027 161.808 101.323 159.593 103.761 159.138Z" fill="#F8F8F8" fill-opacity="0.85"/>
<path d="M84.3624 157.855L75.1589 156.666L74.8437 159.106L81.2703 159.936L81.0191 161.88L75.6041 161.18L75.2966 163.561L80.7116 164.26L80.158 168.545L74.0091 167.75L73.6939 170.19L82.6197 171.343L84.3624 157.855Z" fill="#F8F8F8" fill-opacity="0.85"/>
<path d="M70.9579 155.717L68.1762 154.765L65.0175 157.511C64.3871 158.056 63.6013 159.055 63.6013 159.055C63.6013 159.055 63.5042 157.733 63.3334 156.935L62.4803 152.817L59.4525 151.781L61.3146 160.302L55.8832 164.934L58.7028 165.898L60.7091 164.112C61.3142 163.579 62.0492 162.604 62.0492 162.604C62.0492 162.604 62.1403 163.882 62.2987 164.655L62.847 167.316L65.8558 168.345L64.3359 161.357L70.9579 155.717Z" fill="#F8F8F8" fill-opacity="0.85"/>
<path d="M55.0577 149.506L52.6508 148.075L51.0668 150.74L50.2416 150.249C46.9923 148.318 44.0137 148.828 42.3377 151.647C40.6618 154.467 41.6099 157.334 44.8764 159.275L48.1085 161.196L55.0577 149.506ZM49.8098 152.855L46.9586 157.651L46.2022 157.201C44.2767 156.057 43.8528 154.735 44.8134 153.119C45.7638 151.52 47.0935 151.24 49.0534 152.405L49.8098 152.855Z" fill="#F8F8F8" fill-opacity="0.85"/>
<path d="M42.2421 141.081L35.5764 135.093L33.9325 136.923L38.5152 141.04L31.071 149.327L33.154 151.198L42.2421 141.081Z" fill="#F8F8F8" fill-opacity="0.85"/>
<path d="M28.1549 125.635C25.856 122.46 21.6287 121.669 18.3726 124.026C15.1164 126.384 14.5485 130.647 16.8474 133.822C19.1463 136.997 23.3736 137.788 26.6297 135.431C29.8859 133.073 30.4537 128.81 28.1549 125.635ZM26.1299 127.101C27.5843 129.11 26.9981 131.609 24.9407 133.098C22.8834 134.588 20.3268 134.365 18.8724 132.356C17.418 130.347 18.0042 127.849 20.0615 126.359C22.1189 124.869 24.6755 125.093 26.1299 127.101Z" fill="#F8F8F8" fill-opacity="0.85"/>
<path d="M15.3058 111.124C13.9406 109.884 12.3374 109.555 10.392 110.397C7.34559 111.717 6.58184 114.533 8.09232 118.019L9.5869 121.47L22.0663 116.064L20.9533 113.494L17.8518 114.838L17.4702 113.957C17.3669 113.718 17.2372 113.469 17.0972 113.247L19.3634 109.824L18.0755 106.851L15.3058 111.124ZM15.6129 115.808L10.7312 117.922L10.3814 117.115C9.49104 115.06 9.77502 113.803 11.5368 113.04C13.2986 112.277 14.3568 112.908 15.2631 115L15.6129 115.808Z" fill="#F8F8F8" fill-opacity="0.85"/>
<path d="M16.6126 101.729L14.6486 92.659L12.2443 93.1797L13.6157 99.5129L11.7001 99.9277L10.5446 94.5914L8.19894 95.0993L9.3545 100.436L5.13236 101.35L3.82018 95.2904L1.41591 95.811L3.32068 104.607L16.6126 101.729Z" fill="#F8F8F8" fill-opacity="0.85"/>
</svg>
