<svg width="37" height="54" viewBox="0 0 37 54" fill="none" xmlns="http://www.w3.org/2000/svg">
<path d="M32.1646 20.5992C31.8602 20.5238 31.51 20.4812 31.1499 20.4812C30.7898 20.4812 30.4396 20.5238 30.1057 20.6057C29.9584 19.5245 29.4772 18.5874 28.7898 17.8436C27.9486 16.995 26.78 16.4675 25.4903 16.4675C25.4314 16.4675 25.3725 16.4675 25.3168 16.4708C25.3168 16.4708 25.3037 16.4708 25.2939 16.4708C24.5738 16.4708 23.8864 16.6149 23.2612 16.877C23.0582 16.2774 22.7276 15.7761 22.3119 15.3567C21.4576 14.5376 20.2923 14.0363 19.0124 14.0363C18.8946 14.0363 18.7767 14.0396 18.6622 14.0494H18.6785C19.7096 12.6929 20.3316 10.976 20.3316 9.11493C20.3316 4.59003 16.6687 0.923584 12.1483 0.923584C7.62782 0.923584 3.96498 4.59003 3.96498 9.11493C3.96498 11.7788 5.23503 14.1444 7.20229 15.6418L7.22193 24.3705C5.40851 24.4196 3.77185 25.1339 2.53454 26.2742C0.675293 28.3023 0.675293 31.4478 0.675293 35.3797C0.675293 36.1333 0.675293 36.9196 0.675293 37.7388C0.780039 41.4314 2.5509 44.6883 5.26449 46.7951L6.43634 47.9616C10.4953 52.1228 14.2268 53.3678 22.8684 53.3678C32.2956 53.3678 36.6818 48.0926 36.6818 36.7886V28.5645C36.6818 26.0415 35.9617 21.6149 32.1646 20.5992ZM33.4085 28.2991V36.7853C33.4085 47.8272 29.1859 50.088 22.8684 50.088C14.3578 50.088 11.7391 48.8102 8.79312 45.7302L7.61473 44.5179C5.46416 42.9845 4.05336 40.5369 3.94861 37.7519C3.94861 36.8836 3.94861 36.0972 3.94861 35.3436C3.84059 34.7604 3.77513 34.0887 3.77513 33.4039C3.77513 31.6411 4.18756 29.9734 4.92406 28.4956C5.5329 28.0631 6.33486 27.7486 7.20884 27.7093L7.21866 30.0029V29.282L6.10573 34.1968C6.073 34.2689 6.05336 34.3541 6.05336 34.4426C6.05336 34.78 6.32504 35.052 6.66219 35.052C6.90769 35.052 7.12046 34.9046 7.21866 34.6916L10.492 30.7237C10.5018 30.6778 10.5083 30.6287 10.5083 30.5763C10.5083 30.5238 10.5018 30.4747 10.492 30.4255V12.0474C10.492 12.0081 10.4887 11.9622 10.4887 11.9196C10.4887 11.0809 10.7604 10.3076 11.2187 9.67849C11.5165 9.36395 11.9486 9.1608 12.4265 9.1608C12.4592 9.1608 12.492 9.1608 12.5247 9.16408C13.2121 9.16408 13.7653 9.72109 13.7653 10.4092C13.7653 10.4223 13.7653 10.4321 13.7653 10.4452V23.1221C13.7653 24.0265 14.4985 24.7604 15.402 24.7604C16.3054 24.7604 17.0386 24.0265 17.0386 23.1221V18.7971C17.0713 17.9747 17.7489 17.3194 18.5771 17.3194C18.6131 17.3194 18.6458 17.3194 18.6818 17.3227C18.7571 17.3063 18.8488 17.2964 18.9404 17.2964C19.6998 17.2964 20.3152 17.9124 20.3152 18.6726C20.3152 18.7054 20.3152 18.7381 20.3119 18.7676V23.1221C20.3119 24.0265 21.0452 24.7604 21.9486 24.7604C22.852 24.7604 23.5853 24.0265 23.5853 23.1221V21.0251C23.6965 20.3109 24.3054 19.7702 25.0419 19.7702C25.1041 19.7702 25.1663 19.7735 25.2285 19.7833C25.271 19.7768 25.3267 19.7735 25.3823 19.7735C25.7489 19.7735 26.0828 19.9144 26.3348 20.1438C26.6622 20.5664 26.8586 21.1071 26.8586 21.6936C26.8586 21.7132 26.8586 21.7329 26.8586 21.7493V24.4327C26.8684 25.2584 27.4903 25.9367 28.2923 26.0382C28.361 26.0481 28.433 26.0514 28.5083 26.0514C29.2972 26.0514 29.9551 25.5074 30.1319 24.7735C30.217 24.4065 30.4003 24.1051 30.6556 23.879C30.7636 23.8299 30.888 23.8004 31.019 23.8004C31.1499 23.8004 31.2743 23.8299 31.3856 23.879C32.6294 24.6949 33.4412 26.0874 33.4412 27.67C33.4412 27.8567 33.4314 28.0402 33.4085 28.2237L33.4118 28.2008L33.4085 28.2991Z" fill="#F8F8F8" fill-opacity="0.85"/>
</svg>
