<svg width="55" height="81" viewBox="0 0 55 81" fill="none" xmlns="http://www.w3.org/2000/svg">
<path d="M48.1 30.3889C47.635 30.2725 47.1 30.2067 46.55 30.2067C46 30.2067 45.465 30.2725 44.955 30.399C44.73 28.729 43.995 27.2817 42.945 26.133C41.66 24.8223 39.875 24.0075 37.905 24.0075C37.815 24.0075 37.725 24.0075 37.64 24.0126C37.64 24.0126 37.62 24.0126 37.605 24.0126C36.505 24.0126 35.455 24.2352 34.5 24.6401C34.19 23.714 33.685 22.9397 33.05 22.292C31.745 21.0268 29.965 20.2525 28.01 20.2525C27.83 20.2525 27.65 20.2576 27.475 20.2728H27.5C29.075 18.1777 30.025 15.5259 30.025 12.6515C30.025 5.66281 24.43 0 17.525 0C10.62 0 5.025 5.66281 5.025 12.6515C5.025 16.7658 6.965 20.4195 9.97 22.7322L10 36.2137C7.23 36.2896 4.73 37.3928 2.84 39.1539C2.98023e-07 42.2864 0 47.1446 0 53.2173C0 54.3812 0 55.5958 0 56.8609C0.16 62.5642 2.865 67.5945 7.01 70.8484L8.8 72.65C15 79.077 20.7 81 33.9 81C48.3 81 55 72.8524 55 55.3934V42.6912C55 38.7946 53.9 31.9577 48.1 30.3889ZM50 42.2813V55.3883C50 72.4425 43.55 75.9343 33.9 75.9343C20.9 75.9343 16.9 73.9607 12.4 69.2037L10.6 67.3313C7.315 64.963 5.16 61.1827 5 56.8812C5 55.5401 5 54.3256 5 53.1616C4.835 52.2608 4.735 51.2234 4.735 50.1658C4.735 47.4431 5.365 44.8673 6.49 42.585C7.42 41.917 8.645 41.4312 9.98 41.3704L9.995 44.9128V43.7995L8.295 51.3904C8.245 51.5018 8.215 51.6333 8.215 51.77C8.215 52.2912 8.63 52.7112 9.145 52.7112C9.52 52.7112 9.845 52.4835 9.995 52.1546L14.995 46.0262C15.01 45.9553 15.02 45.8794 15.02 45.7985C15.02 45.7175 15.01 45.6416 14.995 45.5657V17.1807C14.995 17.12 14.99 17.0492 14.99 16.9834C14.99 15.6879 15.405 14.4936 16.105 13.5219C16.56 13.0361 17.22 12.7224 17.95 12.7224C18 12.7224 18.05 12.7224 18.1 12.7274C19.15 12.7274 19.995 13.5877 19.995 14.6504C19.995 14.6707 19.995 14.6859 19.995 14.7061V34.2856C19.995 35.6823 21.115 36.8159 22.495 36.8159C23.875 36.8159 24.995 35.6823 24.995 34.2856V27.6056C25.045 26.3354 26.08 25.3233 27.345 25.3233C27.4 25.3233 27.45 25.3233 27.505 25.3283C27.62 25.303 27.76 25.2878 27.9 25.2878C29.06 25.2878 30 26.2392 30 27.4133C30 27.4639 30 27.5145 29.995 27.56V34.2856C29.995 35.6823 31.115 36.8159 32.495 36.8159C33.875 36.8159 34.995 35.6823 34.995 34.2856V31.0468C35.165 29.9436 36.095 29.1086 37.22 29.1086C37.315 29.1086 37.41 29.1136 37.505 29.1288C37.57 29.1187 37.655 29.1136 37.74 29.1136C38.3 29.1136 38.81 29.3313 39.195 29.6855C39.695 30.3383 39.995 31.1733 39.995 32.0792C39.995 32.1095 39.995 32.1399 39.995 32.1652V36.3098C40.01 37.5851 40.96 38.6326 42.185 38.7895C42.29 38.8047 42.4 38.8098 42.515 38.8098C43.72 38.8098 44.725 37.9697 44.995 36.8361C45.125 36.2693 45.405 35.8038 45.795 35.4546C45.96 35.3787 46.15 35.3331 46.35 35.3331C46.55 35.3331 46.74 35.3787 46.91 35.4546C48.81 36.7147 50.05 38.8654 50.05 41.3097C50.05 41.5982 50.035 41.8815 50 42.1649L50.005 42.1295L50 42.2813Z" fill="#F8F8F8" fill-opacity="0.5"/>
</svg>
